<svg width="512" height="512" viewBox="0 0 512 512" fill="none" xmlns="http://www.w3.org/2000/svg">
<path d="M256 0C114.6 0 0 114.6 0 256C0 397.4 114.6 512 256 512C397.4 512 512 397.4 512 256C512 114.6 397.4 0 256 0ZM390.6 310.6C378.1 323.1 357.85 323.1 345.35 310.6L256 221.3L166.6 310.6C154.1 323.1 133.85 323.1 121.35 310.6C108.85 298.1 108.85 277.85 121.35 265.35L233.35 153.35C239.6 147.1 247.8 144 256 144C264.2 144 272.38 147.125 278.62 153.375L390.62 265.375C403.1 277.9 403.1 298.1 390.6 310.6Z" fill="#C70101"/>
</svg>
